<svg width="31" height="31" viewBox="0 0 31 31" fill="none" xmlns="http://www.w3.org/2000/svg">
<path d="M28.3081 17.7682C28.303 17.763 28.303 17.7578 28.2978 17.7527C28.241 17.5925 28.1686 17.4427 28.0705 17.298L25.2701 13.2525C24.9085 12.7307 24.3143 12.4155 23.6736 12.4155H18.6155V22.475H20.2998C20.2688 22.3097 20.2481 22.1392 20.2481 21.9635C20.2481 20.4445 21.483 19.2097 22.9968 19.2097C24.5158 19.2097 25.7506 20.4445 25.7506 21.9635C25.7506 22.1392 25.73 22.3097 25.699 22.475H26.4791C27.5486 22.475 28.4166 21.607 28.4166 20.5375V18.4037C28.4166 18.1867 28.3753 17.9748 28.3081 17.7682ZM22.4853 17.4427V13.4488H23.6736C23.9733 13.4488 24.2523 13.5935 24.4228 13.8415L26.9131 17.4427H22.4853Z" fill="#EE747E"/>
<path d="M22.9968 20.243C22.0513 20.243 21.2815 21.0128 21.2815 21.9635C21.2815 22.909 22.0513 23.6788 22.9968 23.6788C23.9423 23.6788 24.7173 22.909 24.7173 21.9635C24.7173 21.0128 23.9475 20.243 22.9968 20.243Z" fill="#EE747E"/>
<path d="M5.13042 7.32117C3.72508 7.32117 2.58325 8.47333 2.58325 9.8735V19.9278C2.58325 21.3332 3.72508 22.4698 5.12525 22.4698H5.43008C5.39908 22.3045 5.37842 22.134 5.37842 21.9583C5.37842 20.4393 6.61325 19.2045 8.12708 19.2045C9.64608 19.2045 10.8809 20.4393 10.8809 21.9583C10.8809 22.134 10.8602 22.3045 10.8292 22.4698H17.5821V7.32117H5.13042ZM14.3632 11.501C14.2806 11.842 14.2082 12.2192 14.1307 12.6067C13.8259 14.2032 13.4797 16.0115 12.0692 16.647C11.7541 16.7865 11.4027 16.8588 11.0204 16.8588C10.1989 16.8588 9.22241 16.5333 8.06508 15.872C7.75508 16.1407 7.47608 16.4713 7.25908 16.8743C7.16608 17.0448 6.99041 17.143 6.80441 17.143C6.72175 17.143 6.63908 17.1223 6.56158 17.081C6.30841 16.9467 6.21541 16.6315 6.34975 16.3835C6.69075 15.7532 7.13508 15.2727 7.61558 14.8955C8.04958 12.2915 10.0387 11.9867 11.5061 11.7593C12.3637 11.6302 13.1077 11.5165 13.4539 11.0618C13.5986 10.8655 13.8672 10.7983 14.0894 10.9068C14.3064 11.0153 14.4252 11.2582 14.3632 11.501Z" fill="#EE747E"/>
<path d="M11.3252 14.1515C11.3458 14.4357 11.1288 14.6837 10.8447 14.7043C10.8137 14.7043 9.23784 14.8387 8.06501 15.872C7.98234 15.8307 7.89967 15.7842 7.817 15.7325C7.64134 15.6292 7.54834 15.4328 7.569 15.2313C7.57934 15.1177 7.59484 15.004 7.6155 14.8955C9.01051 13.8105 10.6742 13.6762 10.7723 13.671C11.0513 13.6503 11.3045 13.8673 11.3252 14.1515Z" fill="#EE747E"/>
<path d="M8.1272 20.243C7.1817 20.243 6.41187 21.0128 6.41187 21.9635C6.41187 22.909 7.1817 23.6788 8.1272 23.6788C9.0727 23.6788 9.8477 22.909 9.8477 21.9635C9.8477 21.0128 9.07787 20.243 8.1272 20.243Z" fill="#EE747E"/>
</svg>
