<svg width="23" height="28" viewBox="0 0 23 28" fill="none" xmlns="http://www.w3.org/2000/svg">
<path d="M11.3293 13C12.9716 13 14.303 11.6569 14.303 10C14.303 8.34315 12.9716 7 11.3293 7C9.68705 7 8.35571 8.34315 8.35571 10C8.35571 11.6569 9.68705 13 11.3293 13Z" stroke="black" stroke-width="2" stroke-linecap="round" stroke-linejoin="round"/>
<path d="M11.3293 27C11.3293 27 21.2414 20 21.2414 11C21.2414 8.34783 20.1971 5.8043 18.3382 3.92893C16.4793 2.05357 13.9582 1 11.3293 1C8.70046 1 6.17929 2.05357 4.32041 3.92893C2.46154 5.8043 1.41724 8.34783 1.41724 11C1.41724 20 11.3293 27 11.3293 27Z" stroke="black" stroke-width="2" stroke-linecap="round" stroke-linejoin="round"/>
</svg>
