<svg width="26" height="28" viewBox="0 0 26 28" fill="none" xmlns="http://www.w3.org/2000/svg">
<path d="M2.72369 27L22.6717 27C23.4587 27 24.0966 26.3657 24.0966 25.5833L24.0966 11.4167C24.0966 10.6343 23.4587 10 22.6717 10L2.72369 10C1.93676 10 1.29883 10.6343 1.29883 11.4167L1.29883 25.5833C1.29883 26.3657 1.93676 27 2.72369 27Z" stroke="black" stroke-width="2" stroke-linecap="round" stroke-linejoin="round"/>
<path d="M8.58041 10L16.8151 10C17.0046 10 17.1582 9.84502 17.1582 9.65385L17.1582 5.5C17.1582 3.01472 15.1612 1 12.6977 1C10.2343 1 8.2373 3.01472 8.2373 5.5L8.23731 9.65385C8.23731 9.84502 8.39092 10 8.58041 10Z" stroke="black" stroke-width="2" stroke-linecap="round" stroke-linejoin="round"/>
</svg>
