<svg width="74" height="74" viewBox="0 0 74 74" fill="none" xmlns="http://www.w3.org/2000/svg">
<g clip-path="url(#clip0_26_484)">
<path d="M0.0157334 51.3492C0.0157334 61.0781 7.90217 68.9646 17.631 68.9646C27.36 68.9646 35.2464 61.0781 35.2464 51.3492C35.2464 41.6202 27.36 33.7339 17.631 33.7339C15.6316 33.7339 13.7177 34.0824 11.9259 34.6967C15.8901 11.961 33.6196 -2.70098 17.1844 9.36609C-1.0397 22.7471 -0.00378459 50.8108 0.0166073 51.3251C0.0166073 51.3331 0.0157334 51.3403 0.0157334 51.3492Z" fill="black"/>
<path d="M38.7692 51.3492C38.7692 61.0781 46.6556 68.9646 56.3846 68.9646C66.1136 68.9646 74 61.0781 74 51.3492C74 41.6202 66.1135 33.7339 56.3845 33.7339C54.3849 33.7339 52.4711 34.0824 50.6794 34.6967C54.6436 11.961 72.3731 -2.70098 55.9379 9.36609C37.7138 22.7471 38.7495 50.8108 38.7701 51.3251C38.7701 51.3331 38.7692 51.3403 38.7692 51.3492Z" fill="black"/>
</g>
<defs>
<clipPath id="clip0_26_484">
<rect width="74" height="74" fill="white"/>
</clipPath>
</defs>
</svg>
