<svg width="15" height="14" viewBox="0 0 15 14" fill="none" xmlns="http://www.w3.org/2000/svg">
<path d="M13.1777 8.92773V4.67773H9.55859L11.0527 6.66992L9.89062 7.5C8.47396 5.57422 7.67708 4.48958 7.5 4.24609C7.32292 4.48958 6.52604 5.57422 5.10938 7.5L3.94727 6.66992L5.44141 4.67773H1.82227V8.92773H13.1777ZM13.1777 12.4473V11.0527H1.82227V12.4473H13.1777ZM5.87305 2.05469C5.74023 1.89974 5.57422 1.82227 5.375 1.82227C5.17578 1.82227 5.00977 1.89974 4.87695 2.05469C4.74414 2.1875 4.67773 2.35352 4.67773 2.55273C4.67773 2.75195 4.74414 2.91797 4.87695 3.05078C5.00977 3.18359 5.17578 3.25 5.375 3.25C5.57422 3.25 5.74023 3.18359 5.87305 3.05078C6.00586 2.91797 6.07227 2.75195 6.07227 2.55273C6.07227 2.35352 6.00586 2.1875 5.87305 2.05469ZM10.123 2.05469C9.99023 1.89974 9.82422 1.82227 9.625 1.82227C9.42578 1.82227 9.25977 1.89974 9.12695 2.05469C8.99414 2.1875 8.92773 2.35352 8.92773 2.55273C8.92773 2.75195 8.99414 2.91797 9.12695 3.05078C9.25977 3.18359 9.42578 3.25 9.625 3.25C9.82422 3.25 9.99023 3.18359 10.123 3.05078C10.2559 2.91797 10.3223 2.75195 10.3223 2.55273C10.3223 2.35352 10.2559 2.1875 10.123 2.05469ZM13.1777 3.25C13.5762 3.25 13.9082 3.39388 14.1738 3.68164C14.4395 3.94727 14.5723 4.2793 14.5723 4.67773V12.4473C14.5723 12.8457 14.4395 13.1888 14.1738 13.4766C13.9082 13.7422 13.5762 13.875 13.1777 13.875H1.82227C1.42383 13.875 1.0918 13.7422 0.826172 13.4766C0.560547 13.1888 0.427734 12.8457 0.427734 12.4473V4.67773C0.427734 4.2793 0.560547 3.94727 0.826172 3.68164C1.0918 3.39388 1.42383 3.25 1.82227 3.25H3.38281C3.29427 2.9401 3.25 2.70768 3.25 2.55273C3.25 1.97721 3.46029 1.47917 3.88086 1.05859C4.30143 0.638021 4.79948 0.427734 5.375 0.427734C6.10547 0.427734 6.69206 0.73763 7.13477 1.35742L7.5 1.85547L7.86523 1.35742C8.02018 1.0918 8.27474 0.870443 8.62891 0.693359C8.98307 0.516276 9.3151 0.427734 9.625 0.427734C10.2005 0.427734 10.6986 0.638021 11.1191 1.05859C11.5397 1.47917 11.75 1.97721 11.75 2.55273C11.75 2.70768 11.7057 2.9401 11.6172 3.25H13.1777Z" fill="#EE747E"/>
</svg>
